<svg width="135" height="32" viewBox="0 0 135 32" fill="none" xmlns="http://www.w3.org/2000/svg">
<path d="M44.4783 16.6239C44.4783 15.5752 44.6843 14.6451 45.0963 13.8335C45.5208 13.022 46.0951 12.3977 46.8192 11.9607C47.5434 11.5238 48.3487 11.3053 49.2351 11.3053C49.9093 11.3053 50.5523 11.4551 51.1641 11.7547C51.7758 12.0419 52.2627 12.4289 52.6248 12.9159V7.99048H55.2841V21.849H52.6248V20.3133C52.3002 20.8252 51.8445 21.2372 51.2577 21.5493C50.6709 21.8615 49.9905 22.0175 49.2164 22.0175C48.3424 22.0175 47.5434 21.7928 46.8192 21.3433C46.0951 20.8939 45.5208 20.2634 45.0963 19.4518C44.6843 18.6278 44.4783 17.6852 44.4783 16.6239ZM52.6435 16.6614C52.6435 16.0247 52.5187 15.4816 52.269 15.0321C52.0193 14.5701 51.6822 14.2206 51.2577 13.9833C50.8332 13.7336 50.3775 13.6088 49.8906 13.6088C49.4037 13.6088 48.9542 13.7274 48.5422 13.9646C48.1302 14.2018 47.7931 14.5514 47.5309 15.0134C47.2812 15.4628 47.1563 15.9997 47.1563 16.6239C47.1563 17.2482 47.2812 17.7975 47.5309 18.272C47.7931 18.7339 48.1302 19.0898 48.5422 19.3395C48.9667 19.5892 49.4161 19.714 49.8906 19.714C50.3775 19.714 50.8332 19.5954 51.2577 19.3582C51.6822 19.1085 52.0193 18.7589 52.269 18.3094C52.5187 17.8475 52.6435 17.2981 52.6435 16.6614Z" fill="white"/>
<path d="M60.8975 13.6275V18.6465C60.8975 18.9961 60.9786 19.2521 61.1409 19.4144C61.3157 19.5642 61.6029 19.6391 62.0024 19.6391H63.2197V21.849H61.5717C59.3618 21.849 58.2569 20.7752 58.2569 18.6278V13.6275H57.0208V11.4738H58.2569V8.90813H60.8975V11.4738H63.2197V13.6275H60.8975Z" fill="white"/>
<path d="M82.4526 11.324C83.7261 11.324 84.7499 11.7173 85.524 12.5039C86.3105 13.2779 86.7038 14.3641 86.7038 15.7625V21.849H84.0819V16.1183C84.0819 15.3068 83.8759 14.6887 83.4639 14.2643C83.0519 13.8273 82.4901 13.6088 81.7784 13.6088C81.0668 13.6088 80.4987 13.8273 80.0742 14.2643C79.6622 14.6887 79.4562 15.3068 79.4562 16.1183V21.849H76.8343V16.1183C76.8343 15.3068 76.6283 14.6887 76.2163 14.2643C75.8043 13.8273 75.2424 13.6088 74.5308 13.6088C73.8067 13.6088 73.2323 13.8273 72.8078 14.2643C72.3958 14.6887 72.1898 15.3068 72.1898 16.1183V21.849H69.568V11.4738H72.1898V12.7286C72.5269 12.2916 72.9577 11.9483 73.482 11.6986C74.0189 11.4489 74.6057 11.324 75.2425 11.324C76.054 11.324 76.7781 11.4988 77.4149 11.8484C78.0516 12.1855 78.5448 12.6724 78.8944 13.3091C79.2314 12.7099 79.7184 12.2292 80.3551 11.8671C81.0043 11.505 81.7035 11.324 82.4526 11.324Z" fill="white"/>
<path d="M93.7988 22.0175C92.8 22.0175 91.9011 21.799 91.102 21.362C90.303 20.9126 89.6725 20.2821 89.2105 19.4706C88.7611 18.659 88.5363 17.7226 88.5363 16.6614C88.5363 15.6002 88.7673 14.6638 89.2293 13.8522C89.7037 13.0407 90.3467 12.4165 91.1582 11.9795C91.9697 11.53 92.8749 11.3053 93.8737 11.3053C94.8725 11.3053 95.7777 11.53 96.5892 11.9795C97.4008 12.4165 98.0375 13.0407 98.4995 13.8522C98.9739 14.6638 99.2111 15.6002 99.2111 16.6614C99.2111 17.7226 98.9677 18.659 98.4807 19.4706C98.0063 20.2821 97.3571 20.9126 96.5331 21.362C95.7215 21.799 94.8101 22.0175 93.7988 22.0175ZM93.7988 19.7327C94.2732 19.7327 94.7165 19.6204 95.1285 19.3956C95.553 19.1584 95.8901 18.8088 96.1398 18.3469C96.3895 17.8849 96.5143 17.3231 96.5143 16.6614C96.5143 15.6751 96.2521 14.9197 95.7278 14.3953C95.2159 13.8585 94.5854 13.5901 93.8363 13.5901C93.0872 13.5901 92.4567 13.8585 91.9448 14.3953C91.4454 14.9197 91.1957 15.6751 91.1957 16.6614C91.1957 17.6477 91.4391 18.4093 91.926 18.9462C92.4254 19.4706 93.0497 19.7327 93.7988 19.7327Z" fill="white"/>
<path d="M106.884 11.324C108.12 11.324 109.119 11.7173 109.88 12.5039C110.642 13.2779 111.023 14.3641 111.023 15.7625V21.849H108.401V16.1183C108.401 15.2943 108.195 14.6638 107.783 14.2268C107.371 13.7773 106.809 13.5526 106.097 13.5526C105.373 13.5526 104.799 13.7773 104.374 14.2268C103.962 14.6638 103.756 15.2943 103.756 16.1183V21.849H101.134V11.4738H103.756V12.766C104.106 12.3166 104.549 11.967 105.086 11.7173C105.635 11.4551 106.235 11.324 106.884 11.324Z" fill="white"/>
<path d="M123.161 16.4367C123.161 16.8112 123.136 17.1483 123.086 17.448H115.501C115.563 18.1971 115.826 18.7839 116.288 19.2084C116.749 19.6329 117.318 19.8451 117.992 19.8451C118.966 19.8451 119.659 19.4269 120.071 18.5903H122.898C122.599 19.5892 122.024 20.4132 121.175 21.0624C120.326 21.6991 119.284 22.0175 118.048 22.0175C117.049 22.0175 116.15 21.799 115.351 21.362C114.565 20.9126 113.947 20.2821 113.497 19.4706C113.06 18.659 112.842 17.7226 112.842 16.6614C112.842 15.5877 113.06 14.6451 113.497 13.8335C113.934 13.022 114.546 12.3977 115.332 11.9607C116.119 11.5238 117.024 11.3053 118.048 11.3053C119.034 11.3053 119.914 11.5175 120.689 11.942C121.475 12.3665 122.081 12.972 122.505 13.7586C122.942 14.5327 123.161 15.4254 123.161 16.4367ZM120.445 15.6876C120.433 15.0134 120.189 14.4765 119.715 14.077C119.24 13.665 118.66 13.459 117.973 13.459C117.324 13.459 116.774 13.6587 116.325 14.0582C115.888 14.4453 115.62 14.9884 115.52 15.6876H120.445Z" fill="white"/>
<path d="M135 11.4738L128.576 26.7556H125.786L128.033 21.5868L123.876 11.4738H126.816L129.494 18.7214L132.21 11.4738H135Z" fill="white"/>
<path d="M26.6418 4.57097C23.6942 1.62331 19.775 0 15.6064 0C11.4378 0 7.51863 1.62331 4.57097 4.57097C1.62331 7.51863 0 11.4378 0 15.6064C0 19.775 1.62337 23.6941 4.57097 26.6418C7.51857 29.5896 11.4378 31.2128 15.6064 31.2128C19.775 31.2128 23.6942 29.5895 26.6418 26.6418C29.5895 23.6942 31.2128 19.775 31.2128 15.6064C31.2128 11.4378 29.5894 7.51869 26.6418 4.57097Z" fill="#33CC95"/>
<g clip-path="url(#clip0_35212_809)">
<path d="M16.0522 6.24263V25.8621" stroke="white" stroke-width="2" stroke-linecap="round" stroke-linejoin="round"/>
<path d="M20.5114 9.80981H13.8229C12.9951 9.80981 12.2012 10.1387 11.6159 10.724C11.0305 11.3094 10.7017 12.1033 10.7017 12.9311C10.7017 13.7589 11.0305 14.5528 11.6159 15.1382C12.2012 15.7235 12.9951 16.0524 13.8229 16.0524H18.2819C19.1097 16.0524 19.9036 16.3812 20.489 16.9666C21.0743 17.5519 21.4032 18.3458 21.4032 19.1737C21.4032 20.0015 21.0743 20.7954 20.489 21.3807C19.9036 21.9661 19.1097 22.2949 18.2819 22.2949H10.7017" stroke="white" stroke-width="2" stroke-linecap="round" stroke-linejoin="round"/>
</g>
<defs>
<clipPath id="clip0_35212_809">
<rect width="21.4031" height="21.4031" fill="white" transform="translate(5.35083 5.35083)"/>
</clipPath>
</defs>
</svg>
