<svg xmlns="http://www.w3.org/2000/svg" viewBox="0 0 124.37 56.32"><defs><style>.cls-1,.cls-2{fill:#f0e8d3;}.cls-2{font-size:14.75px;font-family:Poppins-Medium, Poppins;font-weight:500;letter-spacing:-0.06em;}.cls-3{fill:#fafbf8;}</style></defs><g id="Camada_2" data-name="Camada 2"><g id="Camada_1-2" data-name="Camada 1"><path class="cls-1" d="M10.55,23.32a68.18,68.18,0,0,1-1.14-7.17A17.26,17.26,0,0,1,12.11,5.3,16.92,16.92,0,0,0,5.9,8.05,12.12,12.12,0,0,0,.74,16.88l0,.36A16.31,16.31,0,0,0,1,21.76c.06.28.12.55.19.83a10.5,10.5,0,0,0,5.63,7,18.86,18.86,0,0,0,4.88,1.65A42.48,42.48,0,0,0,11,25.5Z"/><path class="cls-1" d="M33.54,18a4,4,0,0,1,0,.49.21.21,0,0,1-.22.21h-10a.21.21,0,0,1-.23-.2c0-.25-.07-.5-.13-.75s-.05-.2-.08-.3a3.46,3.46,0,0,0-1.09-1.53,5.77,5.77,0,0,0-2.62-1.17h0a.7.7,0,0,0,0-.6l0-.09a.81.81,0,0,1,.54-1,5.79,5.79,0,0,1,2.22-.49A3.75,3.75,0,0,0,25.6,9a1.26,1.26,0,0,0-.8-1.51,2.31,2.31,0,0,1-1.45-1.72l0-.1a16.39,16.39,0,0,1,5,2.48,12.24,12.24,0,0,1,4.71,6.7A13.87,13.87,0,0,1,33.54,18Z"/><text class="cls-2" transform="translate(38.27 30.87)">FINANCE CAT</text><path class="cls-1" d="M18,45.53a8.8,8.8,0,0,0-3.95,3.54l-.06.1h0a19.83,19.83,0,0,1-7.48-2.5l-.13-.07a14.38,14.38,0,0,1-2.9-2.28,12.33,12.33,0,0,1-1.84-2.43A12.64,12.64,0,0,1,.72,40a11.78,11.78,0,0,1-.54-2.1.5.5,0,0,1,0-.12c-.06-.4-.11-.8-.14-1.21,0-.2,0-.4,0-.6a1.69,1.69,0,0,1,0-.32.35.35,0,0,1,.27-.3.32.32,0,0,1,.28.05.41.41,0,0,1,.15.23l.12.3.27.64c.17.35.34.71.53,1a14.06,14.06,0,0,0,1,1.49,14.66,14.66,0,0,0,1.14,1.36A14.41,14.41,0,0,0,6.52,42.7c.42.27.84.51,1.28.74l.35.17a16.06,16.06,0,0,0,1.77.73A20.82,20.82,0,0,0,18,45.53Z"/><path class="cls-3" d="M34.53,38.47a11.53,11.53,0,0,1-.46,1.58,12.23,12.23,0,0,1-3.85,5.23,17,17,0,0,1-4.41,2.54h0c-.55.22-1.1.41-1.67.58s-1.14.31-1.73.44c-.3.07-.61.13-.92.18a6.17,6.17,0,0,1-.62.09,1.5,1.5,0,0,0-.74.26,2,2,0,0,0-.41.41,2.24,2.24,0,0,0-.26.54,1.66,1.66,0,0,0,.6,1.75l.25.22a11.34,11.34,0,0,1,1,.85,1.35,1.35,0,0,1,0,2.12,4.4,4.4,0,0,1-2.58,1,6.17,6.17,0,0,1-3.63-.57,3.93,3.93,0,0,1-1.77-2.34,6.11,6.11,0,0,1,1-4.13,8.23,8.23,0,0,1,5-3.83A42.49,42.49,0,0,0,24,44.22a11.38,11.38,0,0,0,4.18-2.87c.16-.16.4-.35.33-.58s-.4-.17-.61-.17l-2.25,0c-1.66,0-3.33,0-5-.07l-3.54-.08c-.52,0-1.17.24-1.33-.64,0-.2-.05-.38-.06-.55a1.64,1.64,0,0,1,.83-1.61,2.78,2.78,0,0,1,1.81-.27,7.84,7.84,0,0,0,2.32-.07c.58-.07.78-.42.72-1a2.26,2.26,0,0,0-1.44-2,3.88,3.88,0,0,1-2.68-2.37,7.33,7.33,0,0,1-.4-2.75,3.65,3.65,0,0,0,0-.47,2.83,2.83,0,0,0-.16-.24,15.23,15.23,0,0,0-.82,3.36.36.36,0,0,1,0,.11A49.16,49.16,0,0,1,14,38.82a.14.14,0,0,1,0,.06,2.49,2.49,0,0,1-2.36,1.79,12.11,12.11,0,0,1-1.7.09.77.77,0,0,1-.8-.6,2.15,2.15,0,0,1,.73-2A3.21,3.21,0,0,0,11.16,37a5.27,5.27,0,0,0,.74-2.74c0-1,0-2,0-3a43.77,43.77,0,0,0-.71-5.9c-.16-.87-.33-1.74-.5-2.61-.21-1.06-.41-2.13-.59-3.2s-.35-2.23-.45-3.35c0-.05,0-.11,0-.16A16.91,16.91,0,0,1,12.46,5.19a14.4,14.4,0,0,1,2.09-2.4A13.23,13.23,0,0,1,17.11,1a12.13,12.13,0,0,1,2.06-.9c.4-.13.59,0,.58.43a11.33,11.33,0,0,1-.15,1.93c-.07.42,0,.67.44.79l.13,0a3.07,3.07,0,0,1,2.75,2.31L23,5.8a2.59,2.59,0,0,0,1.65,1.94,1,1,0,0,1,.61,1.18,3.47,3.47,0,0,1-3.48,3.3,6.26,6.26,0,0,0-2.33.51,1.12,1.12,0,0,0-.7,1.32c0,.19.2.42-.05.55h0a.32.32,0,0,1-.31,0l-.24-.12a8.41,8.41,0,0,1-4.18-4.86,5.72,5.72,0,0,0,2.16,4.28c.28.23.56.45.85.65a9.08,9.08,0,0,0-2.74.55A5.42,5.42,0,0,0,12,16.5a4,4,0,0,0-.52.74,3.64,3.64,0,0,0-.27,2.49,2.44,2.44,0,0,0,.43.94,2.94,2.94,0,0,0,.63.64,5.81,5.81,0,0,0,1.65.83l.16.05a17.52,17.52,0,0,0,3.29.62c1.23.15,2.46.28,3.68.44s2.15.31,3.22.52a21.33,21.33,0,0,1,4.54,1.41,11.19,11.19,0,0,1,2.46,1.52A9,9,0,0,1,34.13,31,14.37,14.37,0,0,1,34.53,38.47Z"/></g></g></svg>