<svg width="151" height="60" viewBox="0 0 151 60" fill="none" xmlns="http://www.w3.org/2000/svg">
<path d="M38.7144 43.1381C38.5873 43.7406 38.4142 44.3324 38.1968 44.9085C37.3201 47.2205 35.8285 49.2492 33.883 50.7753C32.3869 51.9691 30.7198 52.9312 28.9376 53.6293C27.0396 54.3721 25.0596 54.8853 23.0397 55.1582L22.7326 55.1927C22.6677 55.1975 22.6068 55.2258 22.5611 55.2721C22.5155 55.3184 22.4881 55.3797 22.4841 55.4446C22.4841 55.6517 22.4841 55.8587 22.4841 56.0658V60H16.3171V55.907C16.3171 55.2168 16.3171 55.2444 15.6614 55.1513C12.7088 54.785 9.85902 53.8335 7.27874 52.3524L7.13034 52.2627C4.93592 50.9879 3.10679 49.1695 1.81916 46.9826C1.41927 46.2922 1.08313 45.5668 0.814898 44.8153C0.537385 44.0471 0.332868 43.2545 0.20406 42.4479C0.20406 42.403 0.20406 42.3616 0.179903 42.3168C0.110882 41.8681 0.0591157 41.416 0.0315072 40.9639C0.0315072 40.7396 0.00734975 40.5119 0.00734975 40.2737C-0.00244992 40.1589 -0.00244992 40.0435 0.00734975 39.9286C0.0151788 39.847 0.0483276 39.7698 0.10216 39.708C0.155993 39.6461 0.227819 39.6026 0.307592 39.5835C0.36119 39.5716 0.41664 39.5707 0.470609 39.5808C0.524578 39.5909 0.57595 39.6117 0.621639 39.6422C0.703596 39.7058 0.762888 39.7942 0.790741 39.8941C0.828702 40.008 0.877017 40.1219 0.925332 40.2392C1.02196 40.4808 1.12204 40.7189 1.23248 40.9536C1.41193 41.3574 1.60519 41.7508 1.82261 42.1339C2.14856 42.712 2.50928 43.2698 2.90279 43.8042C3.29923 44.3373 3.72676 44.8467 4.18313 45.3295C4.64393 45.8199 5.13494 46.2809 5.65329 46.71C6.17902 47.144 6.7311 47.5451 7.30634 47.9109C7.89336 48.2835 8.5018 48.6211 9.1285 48.9221C9.77288 49.2318 10.4342 49.5049 11.1094 49.74C16.3585 51.5656 21.6213 51.6243 26.8566 49.6089C28.6398 48.9007 30.2422 47.803 31.5466 46.3959C31.7226 46.2096 31.9883 45.999 31.8917 45.7402C31.7985 45.4193 31.4465 45.5504 31.2015 45.5539C27.1707 45.6505 23.1433 45.4952 19.1228 45.4158C18.5464 45.4158 17.8148 45.6884 17.6354 44.6911C17.5986 44.4894 17.5779 44.2852 17.5732 44.0803C17.5732 43.2451 17.8493 42.6101 18.505 42.2719C19.1265 41.9445 19.8406 41.8374 20.5308 41.9682C21.3944 42.0765 22.2694 42.0533 23.126 41.8992C23.7852 41.8233 24.006 41.4229 23.9301 40.8017C23.8059 39.7423 23.3296 38.8208 22.3219 38.4999C20.6758 37.9753 19.7819 37.0366 19.3195 35.8426C18.9744 34.845 18.8222 33.791 18.8708 32.7366C18.8743 32.5627 18.8674 32.3886 18.8501 32.2155C18.8501 32.1672 18.7949 32.1258 18.6741 31.9463C18.0944 33.2163 18.0253 34.4932 17.7631 35.7149C17.7631 35.7563 17.7631 35.8012 17.7389 35.8426C17.1557 38.4447 16.5724 41.0399 15.6165 43.5453C15.6105 43.5657 15.6024 43.5854 15.5923 43.604C15.0988 44.8567 14.3189 45.5401 12.9454 45.6125C12.3132 45.6867 11.6769 45.7212 11.0404 45.7161C10.8331 45.7271 10.6286 45.6635 10.4641 45.5369C10.2995 45.4103 10.1857 45.2291 10.1431 45.0258C9.98092 44.3736 10.3709 43.0311 10.9645 42.7654C11.5796 42.4998 12.1089 42.0684 12.4933 41.5196C13.0834 40.6568 13.2491 39.5732 13.3146 38.4447C13.3802 37.3162 13.3768 36.2222 13.3146 35.1144C13.2049 32.8956 12.9397 30.6873 12.5209 28.5056C11.8755 25.0304 11.0784 21.5724 10.7954 18.0524C10.4272 13.729 11.5514 9.41006 13.9807 5.81489C14.6546 4.83274 15.4385 3.93077 16.3171 3.12651C17.1895 2.32587 18.1532 1.63087 19.1883 1.05588C19.9273 0.655629 20.6998 0.320751 21.4971 0.055069C21.9423 -0.0933266 22.1528 0.055069 22.1425 0.538218C22.1466 1.26369 22.0935 1.98836 21.9837 2.70548C21.8974 3.16793 22.0251 3.46127 22.4703 3.58205L22.6187 3.61311C24.1958 3.86504 25.2657 4.64843 25.697 6.19796C25.7247 6.29459 25.7488 6.39812 25.773 6.5051C25.8677 6.99427 26.0867 7.45086 26.4088 7.831C26.7309 8.21114 27.1454 8.50206 27.6124 8.67582C28.237 8.92084 28.3751 9.36603 28.3026 10.001C27.9989 12.2753 26.6771 13.5315 24.4064 13.704C23.5063 13.7239 22.6188 13.9197 21.7939 14.2803C21.1831 14.584 20.8621 15.0396 21.0036 15.7539C21.0485 15.961 21.2348 16.2233 20.9484 16.3717H20.9139C20.8568 16.3914 20.7959 16.3977 20.736 16.3899C20.6762 16.3821 20.6189 16.3605 20.5688 16.3268C20.479 16.2854 20.3893 16.2267 20.303 16.1819C18.1565 15.1466 16.7795 13.5418 15.6061 10.743C15.4854 12.2339 16.5207 14.2872 18.0219 15.5434C18.3325 15.7988 18.6465 16.0404 18.9709 16.2682C17.9256 16.3216 16.8951 16.5382 15.9167 16.9101C14.957 17.2311 14.0923 17.7861 13.4009 18.5251C12.965 19.0058 12.6561 19.5878 12.5024 20.2183C12.3487 20.8487 12.3551 21.5076 12.5209 22.135C12.6817 22.8499 13.1008 23.4803 13.6977 23.9054C14.2602 24.3183 14.8877 24.6344 15.5544 24.8406C16.815 25.2189 18.1095 25.4732 19.4196 25.5998C22.0079 25.9001 24.5962 26.1485 27.1534 26.6731C28.9047 27.0032 30.6125 27.5324 32.2437 28.2502C33.2335 28.6959 34.1615 29.2677 35.0046 29.9516C36.5419 31.1938 37.6797 32.8609 38.2762 34.7451C39.1631 37.4546 39.3144 40.351 38.7144 43.1381V43.1381Z" fill="#F9FBF7"/>
<path d="M11.7548 26.1244C11.1874 23.4687 10.7623 20.7845 10.4814 18.0834C10.1119 13.8049 11.1767 9.52502 13.508 5.91842C10.9977 6.46719 8.62644 7.52422 6.54028 9.02437C3.15479 11.4781 1.19459 14.7738 0.763206 18.9013C0.763206 19.0394 0.735597 19.1739 0.725244 19.312C0.584418 21.005 0.683171 22.7093 1.01858 24.3747C1.07725 24.6853 1.14627 24.9924 1.22565 25.303C1.62562 27.0061 2.39994 28.5987 3.49235 29.9651C4.58476 31.3315 5.96784 32.4374 7.54109 33.2025C9.27152 34.0678 11.1135 34.6891 13.0145 35.0488C12.9005 32.8742 12.6376 30.7099 12.2276 28.5712C12.0758 27.7544 11.9182 26.9388 11.7548 26.1244Z" fill="#F0E8D3"/>
<path d="M37.5343 20.1195C37.5343 20.3024 37.5343 20.4819 37.5343 20.6614C37.5343 20.6937 37.5278 20.7257 37.5152 20.7554C37.5027 20.7852 37.4843 20.8121 37.4611 20.8347C37.4379 20.8572 37.4105 20.8748 37.3804 20.8866C37.3502 20.8983 37.3181 20.9039 37.2858 20.9029C37.1339 20.9029 36.9752 20.9029 36.8233 20.9029H26.515C26.3632 20.9029 26.2044 20.9029 26.0526 20.9029C25.9878 20.9058 25.9245 20.8832 25.8761 20.84C25.8277 20.7968 25.7982 20.7364 25.7938 20.6717C25.7489 20.3922 25.7178 20.1092 25.6523 19.8331C25.6262 19.7164 25.594 19.6012 25.5556 19.488C25.3195 18.8099 24.8973 18.212 24.3374 17.7625C23.4851 17.0878 22.4739 16.6434 21.4006 16.4718H21.3453C21.3996 16.3648 21.4279 16.2466 21.4279 16.1267C21.4279 16.0067 21.3996 15.8885 21.3453 15.7816C21.3453 15.7436 21.3246 15.7091 21.3177 15.678C21.2315 15.1845 21.4006 14.8394 21.9389 14.584C22.7263 14.2433 23.5728 14.0604 24.4306 14.0457C26.8463 13.8559 28.313 12.4754 28.634 10.0459C28.7479 9.19003 28.4545 8.63786 27.7367 8.35832C27.3225 8.20345 26.9552 7.94466 26.6699 7.60682C26.3846 7.26897 26.1911 6.86344 26.1078 6.42918L26.0767 6.30839C28.1016 6.90809 30.0088 7.85004 31.7158 9.0934C34.2882 10.9175 36.154 13.5718 36.9993 16.6098C37.3131 17.755 37.4926 18.9328 37.5343 20.1195V20.1195Z" fill="#F0E8D3"/>
<path d="M50.662 24.96V26.448H45.942V29.728H49.622V31.216H45.942V36.08H44.118V24.96H50.662ZM54.1763 24.96V36.08H52.3523V24.96H54.1763ZM65.7071 36.08H63.8831L58.3951 27.776V36.08H56.5711V24.944H58.3951L63.8831 33.232V24.944H65.7071V36.08ZM74.8063 33.808H70.1503L69.3503 36.08H67.4463L71.4303 24.944H73.5423L77.5263 36.08H75.6063L74.8063 33.808ZM74.2943 32.32L72.4863 27.152L70.6623 32.32H74.2943ZM88.3946 36.08H86.5706L81.0826 27.776V36.08H79.2586V24.944H81.0826L86.5706 33.232V24.944H88.3946V36.08ZM90.1818 30.496C90.1818 29.408 90.4325 28.432 90.9338 27.568C91.4458 26.704 92.1338 26.032 92.9978 25.552C93.8725 25.0613 94.8272 24.816 95.8618 24.816C97.0458 24.816 98.0965 25.1093 99.0138 25.696C99.9418 26.272 100.614 27.0933 101.03 28.16H98.8378C98.5498 27.5733 98.1498 27.136 97.6378 26.848C97.1258 26.56 96.5338 26.416 95.8618 26.416C95.1258 26.416 94.4698 26.5813 93.8938 26.912C93.3178 27.2426 92.8645 27.7173 92.5338 28.336C92.2138 28.9546 92.0538 29.6746 92.0538 30.496C92.0538 31.3173 92.2138 32.0373 92.5338 32.656C92.8645 33.2746 93.3178 33.7546 93.8938 34.096C94.4698 34.4266 95.1258 34.592 95.8618 34.592C96.5338 34.592 97.1258 34.448 97.6378 34.16C98.1498 33.872 98.5498 33.4346 98.8378 32.848H101.03C100.614 33.9146 99.9418 34.736 99.0138 35.312C98.0965 35.888 97.0458 36.176 95.8618 36.176C94.8165 36.176 93.8618 35.936 92.9978 35.456C92.1338 34.9653 91.4458 34.288 90.9338 33.424C90.4325 32.56 90.1818 31.584 90.1818 30.496ZM104.989 26.432V29.696H108.829V31.184H104.989V34.592H109.309V36.08H103.165V24.944H109.309V26.432H104.989ZM115.104 30.496C115.104 29.408 115.354 28.432 115.856 27.568C116.368 26.704 117.056 26.032 117.92 25.552C118.794 25.0613 119.749 24.816 120.784 24.816C121.968 24.816 123.018 25.1093 123.936 25.696C124.864 26.272 125.536 27.0933 125.952 28.16H123.76C123.472 27.5733 123.072 27.136 122.56 26.848C122.048 26.56 121.456 26.416 120.784 26.416C120.048 26.416 119.392 26.5813 118.816 26.912C118.24 27.2426 117.786 27.7173 117.456 28.336C117.136 28.9546 116.976 29.6746 116.976 30.496C116.976 31.3173 117.136 32.0373 117.456 32.656C117.786 33.2746 118.24 33.7546 118.816 34.096C119.392 34.4266 120.048 34.592 120.784 34.592C121.456 34.592 122.048 34.448 122.56 34.16C123.072 33.872 123.472 33.4346 123.76 32.848H125.952C125.536 33.9146 124.864 34.736 123.936 35.312C123.018 35.888 121.968 36.176 120.784 36.176C119.738 36.176 118.784 35.936 117.92 35.456C117.056 34.9653 116.368 34.288 115.856 33.424C115.354 32.56 115.104 31.584 115.104 30.496ZM134.791 33.808H130.135L129.335 36.08H127.431L131.415 24.944H133.527L137.511 36.08H135.591L134.791 33.808ZM134.279 32.32L132.471 27.152L130.647 32.32H134.279ZM146.427 24.96V26.448H143.467V36.08H141.643V26.448H138.667V24.96H146.427Z" fill="#F0E8D3"/>
</svg>
