<svg width="228" height="91" viewBox="0 0 228 91" fill="none" xmlns="http://www.w3.org/2000/svg">
<path d="M58.6191 65.3111C58.4234 66.2224 58.1615 67.1182 57.8353 67.9914C56.5042 71.4912 54.2445 74.562 51.299 76.8738C49.0376 78.6825 46.5149 80.1377 43.8169 81.1895C42.0546 81.8899 40.2393 82.449 38.3883 82.8615L38.2785 82.8876C37.3328 83.0966 36.3714 83.2743 35.4048 83.4101L34.8823 83.4885H34.9816L35.431 83.4206V90.307H22.9016V83.3474H22.9434L23.3458 83.4101L23.654 83.4572H23.7167C23.5495 83.4572 23.3823 83.4049 23.1942 83.3788L23.0061 83.3474H22.8807C18.6961 82.7427 14.6642 81.3491 10.9993 79.2407L10.7799 79.11C7.45752 77.18 4.68821 74.4269 2.73874 71.1159C2.1336 70.0679 1.62303 68.9681 1.21307 67.8295C0.80338 66.6718 0.500808 65.479 0.30916 64.2661C0.293622 64.199 0.283143 64.1309 0.277811 64.0623C0.173312 63.3831 0.089714 62.7038 0.0479148 62.0194C0.0479148 61.6798 0.0113404 61.3349 0.0113404 60.9744C-0.00378015 60.8006 -0.00378015 60.6257 0.0113404 60.4519C0.0246702 60.3288 0.0753797 60.2128 0.156647 60.1193C0.237914 60.0259 0.345841 59.9596 0.465907 59.9294C0.548164 59.9108 0.633405 59.9095 0.716176 59.9257C0.798948 59.9419 0.877428 59.9752 0.946598 60.0235C1.06874 60.1206 1.15662 60.2542 1.19739 60.4049C1.26009 60.5773 1.33324 60.7445 1.40116 60.9274C1.54746 61.2931 1.70421 61.6536 1.86618 62.0089C2.1431 62.615 2.4357 63.2159 2.76486 63.7958C3.25529 64.6713 3.80155 65.5142 4.40026 66.3195C4.99712 67.1279 5.64273 67.8991 6.33347 68.6289C7.03429 69.3699 7.77933 70.0679 8.56451 70.7188C9.35875 71.3742 10.1928 71.9797 11.062 72.5319C11.3442 72.7148 11.6315 72.8872 11.9189 73.0544C12.5407 73.4201 13.1781 73.7545 13.826 74.068C14.8012 74.5378 15.8025 74.9513 16.8251 75.3063C24.7722 78.0703 32.7401 78.1539 40.6611 75.1025C42.5395 74.3739 44.2853 73.3413 45.8285 72.046C46.5092 71.4833 47.1548 70.8796 47.7617 70.2381C48.0334 69.9612 48.4357 69.6425 48.3156 69.2506C48.1693 68.7647 47.6416 68.9633 47.2706 68.9685C44.5745 69.0312 41.8837 69.0207 39.1929 68.9685C35.7863 68.9163 32.4005 68.817 28.973 68.7491C28.1318 68.7491 27.0868 69.1252 26.7628 67.8399C26.7453 67.7781 26.7314 67.7153 26.721 67.6518C26.6661 67.3445 26.6329 67.0337 26.6218 66.7218C26.6218 65.4626 27.045 64.496 28.0325 63.9892C28.9726 63.4911 30.0546 63.3289 31.0995 63.5294C32.409 63.6917 33.7355 63.6547 35.0339 63.4197C36.0266 63.3047 36.361 62.7038 36.2513 61.7581C36.0579 60.1593 35.3369 58.759 33.8112 58.2783C31.3242 57.4842 29.9657 56.063 29.2656 54.2499C28.7433 52.7397 28.5146 51.1436 28.5916 49.5475C28.5969 49.2842 28.5864 49.0207 28.5602 48.7586C28.5602 48.6854 28.4714 48.6227 28.2937 48.351C27.416 50.2738 27.3062 52.207 26.9091 54.0566C26.9091 54.1193 26.9091 54.182 26.8726 54.2447C25.9948 58.1895 25.1118 62.1134 23.6645 65.9067C23.6555 65.9375 23.6432 65.9673 23.6279 65.9955C23.3029 66.9963 22.6516 67.8591 21.7783 68.446C21.1273 68.8209 20.3923 69.0257 19.6413 69.0416C19.4637 69.0416 19.2808 69.0416 19.1188 69.0834C18.3413 69.186 17.5568 69.2261 16.7728 69.2036C16.4596 69.2201 16.1508 69.1237 15.9025 68.932C15.6542 68.7402 15.4829 68.4659 15.4196 68.1586C15.1688 67.1711 15.7644 65.1334 16.6579 64.7363C17.591 64.337 18.3931 63.6834 18.9725 62.8501C19.8712 61.5439 20.1168 59.8981 20.216 58.1947C20.3109 56.5156 20.3196 54.8327 20.2422 53.1527C20.0655 49.7968 19.657 46.4571 19.0195 43.1575C18.0477 37.896 16.8408 32.6606 16.4071 27.3312C15.8313 20.7931 17.5111 14.2548 21.167 8.80374C22.1904 7.31918 23.3769 5.95393 24.7042 4.73354C26.0279 3.52254 27.4886 2.47041 29.0566 1.5986C30.174 0.993589 31.3418 0.486616 32.5468 0.0833744C33.226 -0.141296 33.5448 0.0833744 33.5291 0.814861C33.5361 1.91171 33.454 3.00732 33.2835 4.09088C33.1581 4.79624 33.3462 5.23513 34.0255 5.42323L34.2501 5.47025C36.6379 5.85167 38.2524 7.03772 38.9107 9.37848C38.9525 9.53 38.9839 9.68675 39.0205 9.84349C39.1655 10.5841 39.4975 11.2753 39.9849 11.8514C40.4723 12.4276 41.099 12.8695 41.8053 13.1352C42.7563 13.5062 42.9653 14.1802 42.8503 15.1363C42.3905 18.5795 40.3946 20.4814 36.9566 20.7479C35.5925 20.7757 34.247 21.0703 32.9962 21.6152C32.0766 22.0802 31.5854 22.7647 31.7997 23.8462C31.8676 24.165 32.1497 24.5568 31.7213 24.7867H31.669C31.5825 24.8158 31.4905 24.8248 31.3999 24.8131C31.3094 24.8013 31.2227 24.7691 31.1465 24.7188C31.0107 24.6509 30.8801 24.562 30.7442 24.4993C27.4996 22.9319 25.4096 20.4971 23.6384 16.2597C23.4503 18.5168 25.0177 21.6257 27.2958 23.5275C27.766 23.9142 28.2467 24.2799 28.7326 24.6247C27.148 24.7069 25.586 25.0366 24.1034 25.6018C22.649 26.0825 21.3391 26.9216 20.2944 28.0418C19.6322 28.7694 19.1629 29.6512 18.9293 30.6068C18.6956 31.5624 18.7051 32.5613 18.9568 33.5123C19.2044 34.5943 19.8402 35.548 20.7438 36.1927C21.5938 36.8162 22.5421 37.293 23.5495 37.6034C25.4586 38.1812 27.4208 38.5663 29.4066 38.7529C33.3201 39.2127 37.244 39.5889 41.1157 40.3831C43.7675 40.8811 46.3534 41.6823 48.8224 42.7708C50.321 43.4455 51.726 44.3113 53.0023 45.3467C55.3295 47.2266 57.0506 49.751 57.9503 52.6041C59.2949 56.7057 59.5257 61.091 58.6191 65.3111Z" fill="#FBFCF9"/>
<path d="M17.8022 39.5523C16.9392 35.532 16.2938 31.4681 15.869 27.3783C15.3128 20.8992 16.9246 14.4189 20.4512 8.95526C16.6516 9.78877 13.062 11.3889 9.90214 13.6577C4.77651 17.3778 1.80876 22.3676 1.15565 28.6166C1.15565 28.8203 1.11385 29.0293 1.09818 29.2331C0.887456 31.798 1.03695 34.3798 1.54229 36.9033C1.63634 37.3735 1.73562 37.8385 1.85579 38.3035C2.4603 40.8831 3.63216 43.2955 5.28615 45.3652C6.94014 47.435 9.03466 49.11 11.4174 50.2686C14.0382 51.5763 16.8266 52.5169 19.7041 53.0639C19.5314 49.7715 19.1334 46.4948 18.5128 43.2568C18.2933 42.0184 18.0425 40.7854 17.8022 39.5523Z" fill="#F0E8D3"/>
<path d="M56.8269 30.461C56.8269 30.7327 56.8269 31.0096 56.8269 31.2813C56.8269 31.3302 56.8171 31.3786 56.7981 31.4237C56.7791 31.4688 56.7512 31.5096 56.7161 31.5437C56.681 31.5778 56.6395 31.6045 56.5939 31.6222C56.5483 31.64 56.4996 31.6484 56.4507 31.647C56.2208 31.647 55.9805 31.647 55.7506 31.647H40.1438C39.9139 31.647 39.6735 31.647 39.4436 31.647C39.3459 31.65 39.2507 31.6154 39.1778 31.5502C39.1049 31.4851 39.0598 31.3944 39.0518 31.297C38.9838 30.8737 38.9368 30.4453 38.8428 30.0273C38.8016 29.8506 38.7511 29.6761 38.6912 29.5048C38.336 28.477 37.6964 27.5712 36.8469 26.8924C35.5553 25.873 34.0248 25.2003 32.4005 24.9382H32.3116C32.3975 24.7784 32.445 24.6008 32.4505 24.4194C32.4559 24.2381 32.4191 24.058 32.343 23.8933C32.343 23.841 32.3064 23.7888 32.296 23.7417C32.1444 22.9894 32.4005 22.4669 33.2155 22.0802C34.4081 21.5653 35.6892 21.2867 36.9879 21.2599C40.6663 20.9778 42.8503 18.8878 43.3728 15.2042C43.54 13.9137 43.0958 13.0777 42.0091 12.6545C41.3828 12.4187 40.8274 12.0265 40.3957 11.5152C39.964 11.004 39.6704 10.3907 39.5429 9.73377L39.4959 9.5509C42.5615 10.4589 45.449 11.885 48.0334 13.7674C51.9221 16.5316 54.7412 20.5499 56.017 25.1472C56.492 26.8811 56.7638 28.6643 56.8269 30.461V30.461Z" fill="#F0E8D3"/>
<path d="M76.1149 37.388V39.527H69.3299V44.242H74.6199V46.381H69.3299V53.373H66.7079V37.388H76.1149ZM81.1668 37.388V53.373H78.5448V37.388H81.1668ZM97.7423 53.373H95.1203L87.2313 41.436V53.373H84.6093V37.365H87.2313L95.1203 49.279V37.365H97.7423V53.373ZM110.822 50.107H104.129L102.979 53.373H100.242L105.969 37.365H109.005L114.732 53.373H111.972L110.822 50.107ZM110.086 47.968L107.487 40.539L104.865 47.968H110.086ZM130.356 53.373H127.734L119.845 41.436V53.373H117.223V37.365H119.845L127.734 49.279V37.365H130.356V53.373ZM132.925 45.346C132.925 43.782 133.285 42.379 134.006 41.137C134.742 39.895 135.731 38.929 136.973 38.239C138.23 37.5337 139.602 37.181 141.09 37.181C142.792 37.181 144.302 37.6027 145.621 38.446C146.955 39.274 147.921 40.4547 148.519 41.988H145.368C144.954 41.1447 144.379 40.516 143.643 40.102C142.907 39.688 142.056 39.481 141.09 39.481C140.032 39.481 139.089 39.7187 138.261 40.194C137.433 40.6694 136.781 41.3517 136.306 42.241C135.846 43.1304 135.616 44.1654 135.616 45.346C135.616 46.5267 135.846 47.5617 136.306 48.451C136.781 49.3404 137.433 50.0304 138.261 50.521C139.089 50.9964 140.032 51.234 141.09 51.234C142.056 51.234 142.907 51.027 143.643 50.613C144.379 50.199 144.954 49.5704 145.368 48.727H148.519C147.921 50.2604 146.955 51.441 145.621 52.269C144.302 53.097 142.792 53.511 141.09 53.511C139.587 53.511 138.215 53.166 136.973 52.476C135.731 51.7707 134.742 50.797 134.006 49.555C133.285 48.313 132.925 46.91 132.925 45.346ZM154.21 39.504V44.196H159.73V46.335H154.21V51.234H160.42V53.373H151.588V37.365H160.42V39.504H154.21ZM168.75 45.346C168.75 43.782 169.11 42.379 169.831 41.137C170.567 39.895 171.556 38.929 172.798 38.239C174.055 37.5337 175.428 37.181 176.915 37.181C178.617 37.181 180.127 37.6027 181.446 38.446C182.78 39.274 183.746 40.4547 184.344 41.988H181.193C180.779 41.1447 180.204 40.516 179.468 40.102C178.732 39.688 177.881 39.481 176.915 39.481C175.857 39.481 174.914 39.7187 174.086 40.194C173.258 40.6694 172.606 41.3517 172.131 42.241C171.671 43.1304 171.441 44.1654 171.441 45.346C171.441 46.5267 171.671 47.5617 172.131 48.451C172.606 49.3404 173.258 50.0304 174.086 50.521C174.914 50.9964 175.857 51.234 176.915 51.234C177.881 51.234 178.732 51.027 179.468 50.613C180.204 50.199 180.779 49.5704 181.193 48.727H184.344C183.746 50.2604 182.78 51.441 181.446 52.269C180.127 53.097 178.617 53.511 176.915 53.511C175.412 53.511 174.04 53.166 172.798 52.476C171.556 51.7707 170.567 50.797 169.831 49.555C169.11 48.313 168.75 46.91 168.75 45.346ZM197.05 50.107H190.357L189.207 53.373H186.47L192.197 37.365H195.233L200.96 53.373H198.2L197.05 50.107ZM196.314 47.968L193.715 40.539L191.093 47.968H196.314ZM213.777 37.388V39.527H209.522V53.373H206.9V39.527H202.622V37.388H213.777Z" fill="#FBFCF9"/>
</svg>
